<mxfile host="app.diagrams.net" modified="2024-03-06T19:20:00.170Z" agent="Mozilla/5.0 (Macintosh; Intel Mac OS X 10_15_7) AppleWebKit/537.36 (KHTML, like Gecko) Chrome/122.0.0.0 Safari/537.36 " etag="TOEy27AX-bJkn-Un0m6Y" version="24.0.1" type="device">
  <diagram name="Page-1" id="Tr4tGnYK85IIivloR9xY">
    <mxGraphModel dx="984" dy="559" grid="1" gridSize="10" guides="1" tooltips="1" connect="1" arrows="1" fold="1" page="1" pageScale="1" pageWidth="850" pageHeight="1100" math="0" shadow="0">
      <root>
        <mxCell id="0" />
        <mxCell id="1" parent="0" />
        <mxCell id="gnlAZvs0xHQvK-cqcroT-5" value="" style="edgeStyle=orthogonalEdgeStyle;rounded=0;orthogonalLoop=1;jettySize=auto;html=1;" edge="1" parent="1" source="gnlAZvs0xHQvK-cqcroT-1" target="gnlAZvs0xHQvK-cqcroT-2">
          <mxGeometry relative="1" as="geometry" />
        </mxCell>
        <mxCell id="gnlAZvs0xHQvK-cqcroT-1" value="Output" style="rounded=0;whiteSpace=wrap;html=1;" vertex="1" parent="1">
          <mxGeometry x="340" y="120" width="160" height="30" as="geometry" />
        </mxCell>
        <mxCell id="gnlAZvs0xHQvK-cqcroT-6" value="" style="edgeStyle=orthogonalEdgeStyle;rounded=0;orthogonalLoop=1;jettySize=auto;html=1;" edge="1" parent="1" source="gnlAZvs0xHQvK-cqcroT-2" target="gnlAZvs0xHQvK-cqcroT-3">
          <mxGeometry relative="1" as="geometry" />
        </mxCell>
        <mxCell id="gnlAZvs0xHQvK-cqcroT-2" value="pooled_output" style="rounded=0;whiteSpace=wrap;html=1;" vertex="1" parent="1">
          <mxGeometry x="340" y="200" width="160" height="30" as="geometry" />
        </mxCell>
        <mxCell id="gnlAZvs0xHQvK-cqcroT-7" value="" style="edgeStyle=orthogonalEdgeStyle;rounded=0;orthogonalLoop=1;jettySize=auto;html=1;" edge="1" parent="1" source="gnlAZvs0xHQvK-cqcroT-3" target="gnlAZvs0xHQvK-cqcroT-4">
          <mxGeometry relative="1" as="geometry" />
        </mxCell>
        <mxCell id="gnlAZvs0xHQvK-cqcroT-3" value="dropout" style="rounded=0;whiteSpace=wrap;html=1;" vertex="1" parent="1">
          <mxGeometry x="340" y="280" width="160" height="30" as="geometry" />
        </mxCell>
        <mxCell id="gnlAZvs0xHQvK-cqcroT-4" value="dense" style="rounded=0;whiteSpace=wrap;html=1;" vertex="1" parent="1">
          <mxGeometry x="340" y="360" width="160" height="30" as="geometry" />
        </mxCell>
      </root>
    </mxGraphModel>
  </diagram>
</mxfile>
